<?xml version="1.0" encoding="UTF-8" standalone="no"?>
<!DOCTYPE svg PUBLIC "-//W3C//DTD SVG 1.1//EN"
 "http://www.w3.org/Graphics/SVG/1.1/DTD/svg11.dtd">
<!-- Generated by graphviz version 2.38.0 (20140413.2041)
 -->
<!-- Title: %3 Pages: 1 -->
<svg width="1478pt" height="1043pt"
 viewBox="0.00 0.00 1477.98 1042.58" xmlns="http://www.w3.org/2000/svg" xmlns:xlink="http://www.w3.org/1999/xlink">
<g id="graph0" class="graph" transform="scale(1 1) rotate(0) translate(4 1038.58)">
<title>%3</title>
<polygon fill="white" stroke="none" points="-4,4 -4,-1038.58 1473.98,-1038.58 1473.98,4 -4,4"/>
<!-- CEN.Northeast\nNDC.Northeast \\ CEN.South -->
<g id="node1" class="node"><title>CEN.Northeast\nNDC.Northeast \\ CEN.South</title>
<polygon fill="#afeeee" stroke="black" points="1294.01,-106.5 1107.01,-106.5 1107.01,-68.5 1294.01,-68.5 1294.01,-106.5"/>
<text text-anchor="middle" x="1200.51" y="-91.3" font-family="Helvetica,sans-Serif" font-size="14.00">CEN.Northeast</text>
<text text-anchor="middle" x="1200.51" y="-76.3" font-family="Helvetica,sans-Serif" font-size="14.00">NDC.Northeast \ CEN.South</text>
</g>
<!-- NDC.Northeast -->
<g id="node6" class="node"><title>NDC.Northeast</title>
<polygon fill="#ffffcc" stroke="black" points="300.343,-472.044 300.343,-486.956 255.85,-497.5 192.928,-497.5 148.435,-486.956 148.435,-472.044 192.928,-461.5 255.85,-461.5 300.343,-472.044"/>
<text text-anchor="middle" x="224.389" y="-475.8" font-family="Helvetica,sans-Serif" font-size="14.00">NDC.Northeast</text>
</g>
<!-- CEN.Northeast\nNDC.Northeast \\ CEN.South&#45;&gt;NDC.Northeast -->
<g id="edge7" class="edge"><title>CEN.Northeast\nNDC.Northeast \\ CEN.South&#45;&gt;NDC.Northeast</title>
<path fill="none" stroke="#000000" stroke-dasharray="1,5" d="M1106.69,-84.9711C1021.92,-84.2588 893.457,-87.1985 783.662,-106.5 635.198,-132.599 597.626,-146.265 459.884,-207.5 403.258,-232.674 375.904,-228.074 339.884,-278.5 293.981,-342.76 356.061,-393.221 303.884,-452.5 300.402,-456.455 296.314,-459.831 291.864,-462.713"/>
<polygon fill="#000000" stroke="#000000" points="289.973,-459.76 282.923,-467.668 293.366,-465.882 289.973,-459.76"/>
</g>
<!-- CEN.West -->
<g id="node2" class="node"><title>CEN.West</title>
<polygon fill="#afeeee" stroke="black" points="421.884,-821.5 341.884,-821.5 341.884,-785.5 421.884,-785.5 421.884,-821.5"/>
<text text-anchor="middle" x="381.884" y="-799.8" font-family="Helvetica,sans-Serif" font-size="14.00">CEN.West</text>
</g>
<!-- NDC.Southwest -->
<g id="node5" class="node"><title>NDC.Southwest</title>
<polygon fill="#ffffcc" stroke="black" points="303.878,-607.044 303.878,-621.956 257.315,-632.5 191.464,-632.5 144.9,-621.956 144.9,-607.044 191.464,-596.5 257.315,-596.5 303.878,-607.044"/>
<text text-anchor="middle" x="224.389" y="-610.8" font-family="Helvetica,sans-Serif" font-size="14.00">NDC.Southwest</text>
</g>
<!-- CEN.West&#45;&gt;NDC.Southwest -->
<g id="edge14" class="edge"><title>CEN.West&#45;&gt;NDC.Southwest</title>
<path fill="none" stroke="#000000" stroke-dasharray="1,5" d="M365.265,-785.314C357.246,-775.589 347.574,-763.229 339.884,-751.5 321.348,-723.231 324.817,-711.043 303.884,-684.5 290.623,-667.685 273.037,-651.586 257.873,-639.075"/>
<polygon fill="#000000" stroke="#000000" points="259.721,-636.068 249.741,-632.512 255.325,-641.516 259.721,-636.068"/>
</g>
<!-- CEN.USA\nNDC.USA -->
<g id="node9" class="node"><title>CEN.USA\nNDC.USA</title>
<ellipse fill="#ffffff" stroke="black" cx="54.4472" cy="-525.5" rx="54.3945" ry="54.3945"/>
<text text-anchor="middle" x="54.4472" y="-529.3" font-family="Helvetica,sans-Serif" font-size="14.00">CEN.USA</text>
<text text-anchor="middle" x="54.4472" y="-514.3" font-family="Helvetica,sans-Serif" font-size="14.00">NDC.USA</text>
</g>
<!-- CEN.West&#45;&gt;CEN.USA\nNDC.USA -->
<g id="edge15" class="edge"><title>CEN.West&#45;&gt;CEN.USA\nNDC.USA</title>
<path fill="none" stroke="#000000" stroke-dasharray="1,5" d="M348.016,-785.399C300.143,-758.094 209.87,-702.979 144.894,-641.5 125.162,-622.829 106.323,-599.543 91.068,-578.744"/>
<polygon fill="#000000" stroke="#000000" points="93.883,-576.664 85.1886,-570.609 88.2096,-580.764 93.883,-576.664"/>
</g>
<!-- CEN.South -->
<g id="node3" class="node"><title>CEN.South</title>
<polygon fill="#afeeee" stroke="black" points="423.884,-543.5 339.884,-543.5 339.884,-507.5 423.884,-507.5 423.884,-543.5"/>
<text text-anchor="middle" x="381.884" y="-521.8" font-family="Helvetica,sans-Serif" font-size="14.00">CEN.South</text>
</g>
<!-- CEN.South&#45;&gt;NDC.Southwest -->
<g id="edge23" class="edge"><title>CEN.South&#45;&gt;NDC.Southwest</title>
<path fill="none" stroke="#000000" stroke-dasharray="1,5" d="M349.417,-543.51C325.364,-557.278 292.019,-576.363 265.961,-591.278"/>
<polygon fill="#000000" stroke="#000000" points="264.016,-588.359 257.075,-596.364 267.493,-594.434 264.016,-588.359"/>
</g>
<!-- CEN.South&#45;&gt;NDC.Northeast -->
<g id="edge6" class="edge"><title>CEN.South&#45;&gt;NDC.Northeast</title>
<path fill="none" stroke="#000000" stroke-dasharray="1,5" d="M339.622,-513.294C322.154,-508.126 301.507,-502.018 282.604,-496.426"/>
<polygon fill="#000000" stroke="#000000" points="283.486,-493.037 272.904,-493.556 281.5,-499.749 283.486,-493.037"/>
</g>
<!-- CEN.South&#45;&gt;CEN.USA\nNDC.USA -->
<g id="edge5" class="edge"><title>CEN.South&#45;&gt;CEN.USA\nNDC.USA</title>
<path fill="none" stroke="#000000" stroke-dasharray="1,5" d="M339.667,-525.5C284.062,-525.5 184.477,-525.5 119.184,-525.5"/>
<polygon fill="#000000" stroke="#000000" points="119.011,-522 109.011,-525.5 119.011,-529 119.011,-522"/>
</g>
<!-- NDC.West\nCEN.West \\ NDC.Southwest -->
<g id="node4" class="node"><title>NDC.West\nCEN.West \\ NDC.Southwest</title>
<polygon fill="#ffffcc" stroke="black" points="747.551,-993.418 747.551,-1017.58 663.328,-1034.67 544.218,-1034.67 459.995,-1017.58 459.995,-993.418 544.218,-976.332 663.328,-976.332 747.551,-993.418"/>
<text text-anchor="middle" x="603.773" y="-1009.3" font-family="Helvetica,sans-Serif" font-size="14.00">NDC.West</text>
<text text-anchor="middle" x="603.773" y="-994.3" font-family="Helvetica,sans-Serif" font-size="14.00">CEN.West \ NDC.Southwest</text>
</g>
<!-- NDC.West\nCEN.West \\ NDC.Southwest&#45;&gt;CEN.West -->
<g id="edge20" class="edge"><title>NDC.West\nCEN.West \\ NDC.Southwest&#45;&gt;CEN.West</title>
<path fill="none" stroke="#000000" stroke-dasharray="1,5" d="M492.159,-986.805C480.502,-981.802 469.439,-975.481 459.884,-967.5 417.588,-932.171 397.12,-868.383 388.413,-831.638"/>
<polygon fill="#000000" stroke="#000000" points="391.766,-830.596 386.169,-821.601 384.935,-832.124 391.766,-830.596"/>
</g>
<!-- NDC.Southwest&#45;&gt;CEN.USA\nNDC.USA -->
<g id="edge13" class="edge"><title>NDC.Southwest&#45;&gt;CEN.USA\nNDC.USA</title>
<path fill="none" stroke="#000000" stroke-dasharray="1,5" d="M189.807,-596.703C167.544,-584.905 137.783,-569.133 111.929,-555.432"/>
<polygon fill="#000000" stroke="#000000" points="113.441,-552.272 102.966,-550.682 110.163,-558.457 113.441,-552.272"/>
</g>
<!-- NDC.Northeast&#45;&gt;CEN.USA\nNDC.USA -->
<g id="edge9" class="edge"><title>NDC.Northeast&#45;&gt;CEN.USA\nNDC.USA</title>
<path fill="none" stroke="#000000" stroke-dasharray="1,5" d="M173.909,-493.053C156.03,-497.95 135.626,-503.539 116.848,-508.682"/>
<polygon fill="#000000" stroke="#000000" points="115.919,-505.308 107.199,-511.325 117.768,-512.059 115.919,-505.308"/>
</g>
<!-- NDC.Southeast -->
<g id="node7" class="node"><title>NDC.Southeast</title>
<polygon fill="#ffffcc" stroke="black" points="1277.78,-412.044 1277.78,-426.956 1232.52,-437.5 1168.51,-437.5 1123.24,-426.956 1123.24,-412.044 1168.51,-401.5 1232.52,-401.5 1277.78,-412.044"/>
<text text-anchor="middle" x="1200.51" y="-415.8" font-family="Helvetica,sans-Serif" font-size="14.00">NDC.Southeast</text>
</g>
<!-- CEN.South \\ NDC.Southwest -->
<g id="node11" class="node"><title>CEN.South \\ NDC.Southwest</title>
<ellipse fill="#ffffff" stroke="black" cx="603.773" cy="-389.5" rx="124.278" ry="124.278"/>
<text text-anchor="middle" x="603.773" y="-385.8" font-family="Helvetica,sans-Serif" font-size="14.00">CEN.South \ NDC.Southwest</text>
</g>
<!-- NDC.Southeast&#45;&gt;CEN.South \\ NDC.Southwest -->
<g id="edge4" class="edge"><title>NDC.Southeast&#45;&gt;CEN.South \\ NDC.Southwest</title>
<path fill="none" stroke="#000000" stroke-dasharray="1,5" d="M1123.15,-413.127C1093.48,-410.803 1059.19,-408.306 1028.04,-406.5 931.031,-400.876 821.407,-396.529 738.031,-393.639"/>
<polygon fill="#000000" stroke="#000000" points="738.111,-390.14 727.996,-393.294 737.87,-397.135 738.111,-390.14"/>
</g>
<!-- CEN.South \\ NDC.Northeast -->
<g id="node12" class="node"><title>CEN.South \\ NDC.Northeast</title>
<ellipse fill="#ffffff" stroke="black" cx="905.851" cy="-537.5" rx="121.578" ry="121.578"/>
<text text-anchor="middle" x="905.851" y="-533.8" font-family="Helvetica,sans-Serif" font-size="14.00">CEN.South \ NDC.Northeast</text>
</g>
<!-- NDC.Southeast&#45;&gt;CEN.South \\ NDC.Northeast -->
<g id="edge22" class="edge"><title>NDC.Southeast&#45;&gt;CEN.South \\ NDC.Northeast</title>
<path fill="none" stroke="#000000" stroke-dasharray="1,5" d="M1159.74,-435.537C1125.82,-449.213 1075.22,-469.616 1028.17,-488.585"/>
<polygon fill="#000000" stroke="#000000" points="1026.78,-485.372 1018.81,-492.357 1029.4,-491.864 1026.78,-485.372"/>
</g>
<!-- CEN.Midwest\nNDC.Midwest -->
<g id="node8" class="node"><title>CEN.Midwest\nNDC.Midwest</title>
<ellipse fill="#ffffff" stroke="black" cx="224.389" cy="-372.5" rx="70.922" ry="70.922"/>
<text text-anchor="middle" x="224.389" y="-376.3" font-family="Helvetica,sans-Serif" font-size="14.00">CEN.Midwest</text>
<text text-anchor="middle" x="224.389" y="-361.3" font-family="Helvetica,sans-Serif" font-size="14.00">NDC.Midwest</text>
</g>
<!-- CEN.Midwest\nNDC.Midwest&#45;&gt;CEN.USA\nNDC.USA -->
<g id="edge11" class="edge"><title>CEN.Midwest\nNDC.Midwest&#45;&gt;CEN.USA\nNDC.USA</title>
<path fill="none" stroke="#000000" stroke-dasharray="1,5" d="M171.631,-419.653C149.646,-439.682 124.19,-462.873 102.719,-482.434"/>
<polygon fill="#000000" stroke="#000000" points="100.338,-479.868 95.3028,-489.19 105.052,-485.043 100.338,-479.868"/>
</g>
<!-- CEN.West * NDC.Southwest\nNDC.Southwest \\ CEN.South -->
<g id="node10" class="node"><title>CEN.West * NDC.Southwest\nNDC.Southwest \\ CEN.South</title>
<ellipse fill="#ffffff" stroke="black" cx="603.773" cy="-823.5" rx="135.115" ry="135.115"/>
<text text-anchor="middle" x="603.773" y="-827.3" font-family="Helvetica,sans-Serif" font-size="14.00">CEN.West * NDC.Southwest</text>
<text text-anchor="middle" x="603.773" y="-812.3" font-family="Helvetica,sans-Serif" font-size="14.00">NDC.Southwest \ CEN.South</text>
</g>
<!-- CEN.West * NDC.Southwest\nNDC.Southwest \\ CEN.South&#45;&gt;CEN.West -->
<g id="edge18" class="edge"><title>CEN.West * NDC.Southwest\nNDC.Southwest \\ CEN.South&#45;&gt;CEN.West</title>
<path fill="none" stroke="#000000" stroke-dasharray="1,5" d="M469.159,-811.347C456.076,-810.157 443.464,-809.01 432.11,-807.977"/>
<polygon fill="#000000" stroke="#000000" points="432.335,-804.483 422.059,-807.063 431.701,-811.455 432.335,-804.483"/>
</g>
<!-- CEN.West * NDC.Southwest\nNDC.Southwest \\ CEN.South&#45;&gt;NDC.Southwest -->
<g id="edge16" class="edge"><title>CEN.West * NDC.Southwest\nNDC.Southwest \\ CEN.South&#45;&gt;NDC.Southwest</title>
<path fill="none" stroke="#000000" stroke-dasharray="1,5" d="M485.177,-758.374C410.692,-717.123 318.896,-666.286 266.761,-637.412"/>
<polygon fill="#000000" stroke="#000000" points="268.255,-634.239 257.811,-632.456 264.863,-640.362 268.255,-634.239"/>
</g>
<!-- CEN.South \\ NDC.Southwest&#45;&gt;CEN.South -->
<g id="edge10" class="edge"><title>CEN.South \\ NDC.Southwest&#45;&gt;CEN.South</title>
<path fill="none" stroke="#000000" stroke-dasharray="1,5" d="M497.658,-454.513C470.219,-471.483 442.379,-488.703 420.99,-501.932"/>
<polygon fill="#000000" stroke="#000000" points="418.902,-499.108 412.238,-507.345 422.584,-505.061 418.902,-499.108"/>
</g>
<!-- CEN.South \\ NDC.Southwest&#45;&gt;NDC.Northeast -->
<g id="edge3" class="edge"><title>CEN.South \\ NDC.Southwest&#45;&gt;NDC.Northeast</title>
<path fill="none" stroke="#000000" stroke-dasharray="1,5" d="M482.848,-418.1C418.37,-433.477 341.482,-451.814 288.619,-464.421"/>
<polygon fill="#000000" stroke="#000000" points="287.622,-461.06 278.707,-466.785 289.246,-467.869 287.622,-461.06"/>
</g>
<!-- CEN.South \\ NDC.Northeast&#45;&gt;CEN.South -->
<g id="edge2" class="edge"><title>CEN.South \\ NDC.Northeast&#45;&gt;CEN.South</title>
<path fill="none" stroke="#000000" stroke-dasharray="1,5" d="M784.118,-534.724C673.457,-532.18 514.94,-528.536 434.278,-526.682"/>
<polygon fill="#000000" stroke="#000000" points="433.974,-523.174 423.896,-526.443 433.813,-530.172 433.974,-523.174"/>
</g>
<!-- CEN.South \\ NDC.Northeast&#45;&gt;NDC.Southwest -->
<g id="edge21" class="edge"><title>CEN.South \\ NDC.Northeast&#45;&gt;NDC.Southwest</title>
<path fill="none" stroke="#000000" stroke-dasharray="1,5" d="M784.941,-551.089C648.712,-566.527 429.842,-591.33 310.209,-604.888"/>
<polygon fill="#000000" stroke="#000000" points="309.549,-601.44 300.006,-606.044 310.337,-608.396 309.549,-601.44"/>
</g>
<!-- CEN.South \\ NDC.Northeast&#45;&gt;CEN.South \\ NDC.Southwest -->
<g id="edge1" class="edge"><title>CEN.South \\ NDC.Northeast&#45;&gt;CEN.South \\ NDC.Southwest</title>
<path fill="none" stroke="#000000" stroke-dasharray="1,5" d="M796.516,-484.069C773.145,-472.542 748.307,-460.292 724.528,-448.564"/>
<polygon fill="#000000" stroke="#000000" points="725.989,-445.382 715.472,-444.097 722.892,-451.66 725.989,-445.382"/>
</g>
<!-- CEN.South * NDC.Southwest\nNDC.Southwest \\ CEN.West -->
<g id="node13" class="node"><title>CEN.South * NDC.Southwest\nNDC.Southwest \\ CEN.West</title>
<ellipse fill="#ffffff" stroke="black" cx="1200.51" cy="-655.5" rx="136.443" ry="136.443"/>
<text text-anchor="middle" x="1200.51" y="-659.3" font-family="Helvetica,sans-Serif" font-size="14.00">CEN.South * NDC.Southwest</text>
<text text-anchor="middle" x="1200.51" y="-644.3" font-family="Helvetica,sans-Serif" font-size="14.00">NDC.Southwest \ CEN.West</text>
</g>
<!-- CEN.South * NDC.Southwest\nNDC.Southwest \\ CEN.West&#45;&gt;NDC.Southwest -->
<g id="edge12" class="edge"><title>CEN.South * NDC.Southwest\nNDC.Southwest \\ CEN.West&#45;&gt;NDC.Southwest</title>
<path fill="none" stroke="#000000" stroke-dasharray="1,5" d="M1064.31,-666.71C1052.05,-667.436 1039.82,-668.054 1028.04,-668.5 919.505,-672.608 892.148,-673.735 783.662,-668.5 613.591,-660.294 415.39,-638.104 306.834,-624.863"/>
<polygon fill="#000000" stroke="#000000" points="306.964,-621.352 296.612,-623.61 306.112,-628.3 306.964,-621.352"/>
</g>
<!-- CEN.South * NDC.Southwest\nNDC.Southwest \\ CEN.West&#45;&gt;CEN.South \\ NDC.Northeast -->
<g id="edge8" class="edge"><title>CEN.South * NDC.Southwest\nNDC.Southwest \\ CEN.West&#45;&gt;CEN.South \\ NDC.Northeast</title>
<path fill="none" stroke="#000000" stroke-dasharray="1,5" d="M1073.7,-604.773C1058.56,-598.669 1043.12,-592.444 1028.05,-586.367"/>
<polygon fill="#000000" stroke="#000000" points="1029.3,-583.099 1018.72,-582.605 1026.69,-589.591 1029.3,-583.099"/>
</g>
<!-- CEN.South * NDC.Northeast -->
<g id="node14" class="node"><title>CEN.South * NDC.Northeast</title>
<ellipse fill="#ffffff" stroke="black" cx="905.851" cy="-237.5" rx="122.379" ry="122.379"/>
<text text-anchor="middle" x="905.851" y="-233.8" font-family="Helvetica,sans-Serif" font-size="14.00">CEN.South * NDC.Northeast</text>
</g>
<!-- CEN.South * NDC.Northeast&#45;&gt;NDC.Northeast -->
<g id="edge19" class="edge"><title>CEN.South * NDC.Northeast&#45;&gt;NDC.Northeast</title>
<path fill="none" stroke="#000000" stroke-dasharray="1,5" d="M785.2,-216.71C691.528,-206.334 560.674,-205.225 459.884,-256.5 360.652,-306.983 394.824,-388.271 303.884,-452.5 298.631,-456.21 292.824,-459.447 286.816,-462.263"/>
<polygon fill="#000000" stroke="#000000" points="285.079,-459.2 277.26,-466.35 287.831,-465.636 285.079,-459.2"/>
</g>
<!-- CEN.South * NDC.Northeast&#45;&gt;CEN.South \\ NDC.Southwest -->
<g id="edge17" class="edge"><title>CEN.South * NDC.Northeast&#45;&gt;CEN.South \\ NDC.Southwest</title>
<path fill="none" stroke="#000000" stroke-dasharray="1,5" d="M796.516,-292.375C772.996,-304.289 747.99,-316.955 724.074,-329.07"/>
<polygon fill="#000000" stroke="#000000" points="722.306,-326.042 714.966,-333.683 725.469,-332.287 722.306,-326.042"/>
</g>
<!-- Legend -->
<g id="node15" class="node"><title>Legend</title>
<polygon fill="white" stroke="black" points="1469.98,-175 1372.98,-175 1372.98,-0 1469.98,-0 1469.98,-175"/>
<polygon fill="none" stroke="black" points="1373.48,-149.5 1373.48,-174.5 1470.48,-174.5 1470.48,-149.5 1373.48,-149.5"/>
<text text-anchor="start" x="1398.98" y="-158.3" font-family="Arial Black" font-size="14.00"> Nodes</text>
<polygon fill="#afeeee" stroke="none" points="1373.48,-124.5 1373.48,-149.5 1444.48,-149.5 1444.48,-124.5 1373.48,-124.5"/>
<polygon fill="none" stroke="black" points="1373.48,-124.5 1373.48,-149.5 1444.48,-149.5 1444.48,-124.5 1373.48,-124.5"/>
<text text-anchor="start" x="1394.48" y="-133.3" font-family="Helvetica,sans-Serif" font-size="14.00">CEN</text>
<polygon fill="none" stroke="black" points="1444.48,-124.5 1444.48,-149.5 1470.48,-149.5 1470.48,-124.5 1444.48,-124.5"/>
<text text-anchor="start" x="1453.48" y="-133.3" font-family="Helvetica,sans-Serif" font-size="14.00">3</text>
<polygon fill="#ffffcc" stroke="none" points="1373.48,-99.5 1373.48,-124.5 1444.48,-124.5 1444.48,-99.5 1373.48,-99.5"/>
<polygon fill="none" stroke="black" points="1373.48,-99.5 1373.48,-124.5 1444.48,-124.5 1444.48,-99.5 1373.48,-99.5"/>
<text text-anchor="start" x="1393.98" y="-108.3" font-family="Helvetica,sans-Serif" font-size="14.00">NDC</text>
<polygon fill="none" stroke="black" points="1444.48,-99.5 1444.48,-124.5 1470.48,-124.5 1470.48,-99.5 1444.48,-99.5"/>
<text text-anchor="start" x="1453.48" y="-108.3" font-family="Helvetica,sans-Serif" font-size="14.00">4</text>
<polygon fill="#ffffff" stroke="none" points="1373.48,-74.5 1373.48,-99.5 1444.48,-99.5 1444.48,-74.5 1373.48,-74.5"/>
<polygon fill="none" stroke="black" points="1373.48,-74.5 1373.48,-99.5 1444.48,-99.5 1444.48,-74.5 1373.48,-74.5"/>
<text text-anchor="start" x="1378.48" y="-83.3" font-family="Helvetica,sans-Serif" font-size="14.00">congruent</text>
<polygon fill="none" stroke="black" points="1444.48,-74.5 1444.48,-99.5 1470.48,-99.5 1470.48,-74.5 1444.48,-74.5"/>
<text text-anchor="start" x="1453.48" y="-83.3" font-family="Helvetica,sans-Serif" font-size="14.00">2</text>
<polygon fill="#ffffff" stroke="none" points="1373.48,-49.5 1373.48,-74.5 1444.48,-74.5 1444.48,-49.5 1373.48,-49.5"/>
<polygon fill="none" stroke="black" points="1373.48,-49.5 1373.48,-74.5 1444.48,-74.5 1444.48,-49.5 1373.48,-49.5"/>
<text text-anchor="start" x="1387.48" y="-58.3" font-family="Helvetica,sans-Serif" font-size="14.00">*NEW*</text>
<polygon fill="none" stroke="black" points="1444.48,-49.5 1444.48,-74.5 1470.48,-74.5 1470.48,-49.5 1444.48,-49.5"/>
<text text-anchor="start" x="1453.48" y="-58.3" font-family="Helvetica,sans-Serif" font-size="14.00">5</text>
<polygon fill="none" stroke="black" points="1373.48,-24.5 1373.48,-49.5 1470.48,-49.5 1470.48,-24.5 1373.48,-24.5"/>
<text text-anchor="start" x="1397.48" y="-33.3" font-family="Arial Black" font-size="14.00"> Edges </text>
<polygon fill="none" stroke="black" points="1373.48,0.5 1373.48,-24.5 1444.48,-24.5 1444.48,0.5 1373.48,0.5"/>
<text text-anchor="start" x="1388.48" y="-8.3" font-family="Helvetica,sans-Serif" font-size="14.00" fill="#000000">default</text>
<polygon fill="none" stroke="black" points="1444.48,0.5 1444.48,-24.5 1470.48,-24.5 1470.48,0.5 1444.48,0.5"/>
<text text-anchor="start" x="1449.48" y="-8.3" font-family="Helvetica,sans-Serif" font-size="14.00">23</text>
</g>
</g>
</svg>
