<?xml version="1.0" encoding="UTF-8" standalone="no"?>
<!DOCTYPE svg PUBLIC "-//W3C//DTD SVG 1.1//EN"
 "http://www.w3.org/Graphics/SVG/1.1/DTD/svg11.dtd">
<!-- Generated by graphviz version 2.38.0 (20140413.2041)
 -->
<!-- Title: %3 Pages: 1 -->
<svg width="738pt" height="329pt"
 viewBox="0.00 0.00 738.32 328.95" xmlns="http://www.w3.org/2000/svg" xmlns:xlink="http://www.w3.org/1999/xlink">
<g id="graph0" class="graph" transform="scale(1 1) rotate(0) translate(4 324.95)">
<title>%3</title>
<polygon fill="white" stroke="none" points="-4,4 -4,-324.95 734.319,-324.95 734.319,4 -4,4"/>
<!-- CEN.South -->
<g id="node1" class="node"><title>CEN.South</title>
<polygon fill="#ccffcc" stroke="black" points="416.714,-93 337.714,-93 337.714,-57 416.714,-57 416.714,-93"/>
<text text-anchor="middle" x="377.214" y="-71.3" font-family="Times,serif" font-size="14.00">CEN.South</text>
</g>
<!-- NDC.Northeast -->
<g id="node5" class="node"><title>NDC.Northeast</title>
<polygon fill="#ffffcc" stroke="black" points="288.452,-17.5442 288.452,-32.4558 246.8,-43 187.894,-43 146.241,-32.4558 146.241,-17.5442 187.894,-7 246.8,-7 288.452,-17.5442"/>
<text text-anchor="middle" x="217.347" y="-21.3" font-family="Times,serif" font-size="14.00">NDC.Northeast</text>
</g>
<!-- CEN.South&#45;&gt;NDC.Northeast -->
<g id="edge9" class="edge"><title>CEN.South&#45;&gt;NDC.Northeast</title>
<path fill="none" stroke="#000000" stroke-dasharray="1,5" d="M337.595,-62.7686C317.964,-56.551 293.785,-48.8929 272.342,-42.1015"/>
<polygon fill="#000000" stroke="#000000" points="273.299,-38.7333 262.709,-39.0504 271.185,-45.4066 273.299,-38.7333"/>
</g>
<!-- NDC.Southwest -->
<g id="node6" class="node"><title>NDC.Southwest</title>
<polygon fill="#ffffcc" stroke="black" points="291.081,-265.544 291.081,-280.456 247.888,-291 186.805,-291 143.613,-280.456 143.613,-265.544 186.805,-255 247.888,-255 291.081,-265.544"/>
<text text-anchor="middle" x="217.347" y="-269.3" font-family="Times,serif" font-size="14.00">NDC.Southwest</text>
</g>
<!-- CEN.South&#45;&gt;NDC.Southwest -->
<g id="edge6" class="edge"><title>CEN.South&#45;&gt;NDC.Southwest</title>
<path fill="none" stroke="#000000" stroke-dasharray="1,5" d="M371.95,-93.1999C362.947,-127.755 338.801,-203.227 291.214,-246 287.301,-249.517 282.889,-252.589 278.221,-255.271"/>
<polygon fill="#000000" stroke="#000000" points="276.322,-252.309 268.992,-259.959 279.493,-258.55 276.322,-252.309"/>
</g>
<!-- CEN.USA\nNDC.USA -->
<g id="node9" class="node"><title>CEN.USA\nNDC.USA</title>
<ellipse fill="#ffffff" stroke="black" cx="53.7401" cy="-168" rx="53.9813" ry="53.9813"/>
<text text-anchor="middle" x="53.7401" y="-171.8" font-family="Times,serif" font-size="14.00">CEN.USA</text>
<text text-anchor="middle" x="53.7401" y="-156.8" font-family="Times,serif" font-size="14.00">NDC.USA</text>
</g>
<!-- CEN.South&#45;&gt;CEN.USA\nNDC.USA -->
<g id="edge8" class="edge"><title>CEN.South&#45;&gt;CEN.USA\nNDC.USA</title>
<path fill="none" stroke="#000000" stroke-dasharray="1,5" d="M337.435,-70.0995C289.799,-65.7118 207.446,-63.5032 143.48,-90 126.689,-96.9557 110.89,-108.441 97.4077,-120.487"/>
<polygon fill="#000000" stroke="#000000" points="94.6845,-118.24 89.7475,-127.615 99.4528,-123.365 94.6845,-118.24"/>
</g>
<!-- CEN.West -->
<g id="node2" class="node"><title>CEN.West</title>
<polygon fill="#ccffcc" stroke="black" points="415.214,-314 339.214,-314 339.214,-278 415.214,-278 415.214,-314"/>
<text text-anchor="middle" x="377.214" y="-292.3" font-family="Times,serif" font-size="14.00">CEN.West</text>
</g>
<!-- CEN.West&#45;&gt;NDC.Southwest -->
<g id="edge5" class="edge"><title>CEN.West&#45;&gt;NDC.Southwest</title>
<path fill="none" stroke="#000000" stroke-dasharray="1,5" d="M339.201,-290.608C325.39,-288.595 309.167,-286.232 293.169,-283.901"/>
<polygon fill="#000000" stroke="#000000" points="293.661,-280.436 283.261,-282.458 292.652,-287.363 293.661,-280.436"/>
</g>
<!-- CEN.West&#45;&gt;CEN.USA\nNDC.USA -->
<g id="edge7" class="edge"><title>CEN.West&#45;&gt;CEN.USA\nNDC.USA</title>
<path fill="none" stroke="#000000" stroke-dasharray="1,5" d="M338.977,-307.144C290.754,-319.33 205.54,-333.059 143.48,-300 114.249,-284.428 92.9287,-254.472 78.5236,-227.029"/>
<polygon fill="#000000" stroke="#000000" points="81.523,-225.203 73.902,-217.843 75.2698,-228.349 81.523,-225.203"/>
</g>
<!-- CEN.Northeast -->
<g id="node3" class="node"><title>CEN.Northeast</title>
<polygon fill="#ccffcc" stroke="black" points="427.214,-39 327.214,-39 327.214,-3 427.214,-3 427.214,-39"/>
<text text-anchor="middle" x="377.214" y="-17.3" font-family="Times,serif" font-size="14.00">CEN.Northeast</text>
</g>
<!-- CEN.Northeast&#45;&gt;NDC.Northeast -->
<g id="edge4" class="edge"><title>CEN.Northeast&#45;&gt;NDC.Northeast</title>
<path fill="none" stroke="#000000" stroke-dasharray="1,5" d="M327.129,-22.2437C318.06,-22.4735 308.375,-22.7189 298.662,-22.965"/>
<polygon fill="#000000" stroke="#000000" points="298.462,-19.4688 288.554,-23.2211 298.639,-26.4666 298.462,-19.4688"/>
</g>
<!-- NDC.Southeast -->
<g id="node4" class="node"><title>NDC.Southeast</title>
<polygon fill="#ffffcc" stroke="black" points="605.372,-67.5442 605.372,-82.4558 563.719,-93 504.814,-93 463.161,-82.4558 463.161,-67.5442 504.814,-57 563.719,-57 605.372,-67.5442"/>
<text text-anchor="middle" x="534.266" y="-71.3" font-family="Times,serif" font-size="14.00">NDC.Southeast</text>
</g>
<!-- NDC.Southeast&#45;&gt;CEN.South -->
<g id="edge2" class="edge"><title>NDC.Southeast&#45;&gt;CEN.South</title>
<path fill="none" stroke="#000000" stroke-dasharray="1,5" d="M462.999,-75C450.852,-75 438.465,-75 427.046,-75"/>
<polygon fill="#000000" stroke="#000000" points="426.865,-71.5001 416.865,-75 426.865,-78.5001 426.865,-71.5001"/>
</g>
<!-- NDC.Northeast&#45;&gt;CEN.USA\nNDC.USA -->
<g id="edge1" class="edge"><title>NDC.Northeast&#45;&gt;CEN.USA\nNDC.USA</title>
<path fill="none" stroke="#000000" stroke-dasharray="1,5" d="M173.951,-39.518C163.431,-44.1935 152.574,-50.0134 143.48,-57 122.759,-72.9192 103.995,-94.6645 89.1151,-114.691"/>
<polygon fill="#000000" stroke="#000000" points="86.2337,-112.702 83.1909,-122.851 91.8983,-116.815 86.2337,-112.702"/>
</g>
<!-- NDC.Southwest&#45;&gt;CEN.USA\nNDC.USA -->
<g id="edge10" class="edge"><title>NDC.Southwest&#45;&gt;CEN.USA\nNDC.USA</title>
<path fill="none" stroke="#000000" stroke-dasharray="1,5" d="M170.457,-258.919C161.235,-255.29 151.822,-250.977 143.48,-246 128.167,-236.863 113.02,-224.936 99.6926,-213.168"/>
<polygon fill="#000000" stroke="#000000" points="101.835,-210.387 92.0684,-206.28 97.1423,-215.581 101.835,-210.387"/>
</g>
<!-- NDC.West -->
<g id="node7" class="node"><title>NDC.West</title>
<polygon fill="#ffffcc" stroke="black" points="588.605,-288.544 588.605,-303.456 556.774,-314 511.759,-314 479.928,-303.456 479.928,-288.544 511.759,-278 556.774,-278 588.605,-288.544"/>
<text text-anchor="middle" x="534.266" y="-292.3" font-family="Times,serif" font-size="14.00">NDC.West</text>
</g>
<!-- NDC.West&#45;&gt;CEN.West -->
<g id="edge11" class="edge"><title>NDC.West&#45;&gt;CEN.West</title>
<path fill="none" stroke="#000000" stroke-dasharray="1,5" d="M479.906,-296C462.35,-296 442.958,-296 425.856,-296"/>
<polygon fill="#000000" stroke="#000000" points="425.541,-292.5 415.541,-296 425.541,-299.5 425.541,-292.5"/>
</g>
<!-- CEN.Midwest\nNDC.Midwest -->
<g id="node8" class="node"><title>CEN.Midwest\nNDC.Midwest</title>
<ellipse fill="#ffffff" stroke="black" cx="217.347" cy="-168" rx="68.6788" ry="68.6788"/>
<text text-anchor="middle" x="217.347" y="-171.8" font-family="Times,serif" font-size="14.00">CEN.Midwest</text>
<text text-anchor="middle" x="217.347" y="-156.8" font-family="Times,serif" font-size="14.00">NDC.Midwest</text>
</g>
<!-- CEN.Midwest\nNDC.Midwest&#45;&gt;CEN.USA\nNDC.USA -->
<g id="edge3" class="edge"><title>CEN.Midwest\nNDC.Midwest&#45;&gt;CEN.USA\nNDC.USA</title>
<path fill="none" stroke="#000000" stroke-dasharray="1,5" d="M148.747,-168C138.605,-168 128.177,-168 118.126,-168"/>
<polygon fill="#000000" stroke="#000000" points="117.817,-164.5 107.817,-168 117.817,-171.5 117.817,-164.5"/>
</g>
<!-- Legend -->
<g id="node10" class="node"><title>Legend</title>
<polygon fill="white" stroke="black" points="730.319,-150 641.319,-150 641.319,-0 730.319,-0 730.319,-150"/>
<polygon fill="none" stroke="black" points="641.819,-125 641.819,-150 730.819,-150 730.819,-125 641.819,-125"/>
<text text-anchor="start" x="663.319" y="-133.8" font-family="Arial Black" font-size="14.00"> Nodes</text>
<polygon fill="#ccffcc" stroke="none" points="641.819,-100 641.819,-125 706.819,-125 706.819,-100 641.819,-100"/>
<polygon fill="none" stroke="black" points="641.819,-100 641.819,-125 706.819,-125 706.819,-100 641.819,-100"/>
<text text-anchor="start" x="660.319" y="-108.8" font-family="Times,serif" font-size="14.00">CEN</text>
<polygon fill="none" stroke="black" points="706.819,-100 706.819,-125 730.819,-125 730.819,-100 706.819,-100"/>
<text text-anchor="start" x="715.319" y="-108.8" font-family="Times,serif" font-size="14.00">3</text>
<polygon fill="#ffffcc" stroke="none" points="641.819,-75 641.819,-100 706.819,-100 706.819,-75 641.819,-75"/>
<polygon fill="none" stroke="black" points="641.819,-75 641.819,-100 706.819,-100 706.819,-75 641.819,-75"/>
<text text-anchor="start" x="659.819" y="-83.8" font-family="Times,serif" font-size="14.00">NDC</text>
<polygon fill="none" stroke="black" points="706.819,-75 706.819,-100 730.819,-100 730.819,-75 706.819,-75"/>
<text text-anchor="start" x="715.319" y="-83.8" font-family="Times,serif" font-size="14.00">4</text>
<polygon fill="#ffffff" stroke="none" points="641.819,-50 641.819,-75 706.819,-75 706.819,-50 641.819,-50"/>
<polygon fill="none" stroke="black" points="641.819,-50 641.819,-75 706.819,-75 706.819,-50 641.819,-50"/>
<text text-anchor="start" x="646.819" y="-58.8" font-family="Times,serif" font-size="14.00">congruent</text>
<polygon fill="none" stroke="black" points="706.819,-50 706.819,-75 730.819,-75 730.819,-50 706.819,-50"/>
<text text-anchor="start" x="715.319" y="-58.8" font-family="Times,serif" font-size="14.00">2</text>
<polygon fill="none" stroke="black" points="641.819,-25 641.819,-50 730.819,-50 730.819,-25 641.819,-25"/>
<text text-anchor="start" x="661.819" y="-33.8" font-family="Arial Black" font-size="14.00"> Edges </text>
<polygon fill="none" stroke="black" points="641.819,1.42109e-14 641.819,-25 706.819,-25 706.819,1.42109e-14 641.819,1.42109e-14"/>
<text text-anchor="start" x="655.319" y="-8.8" font-family="Times,serif" font-size="14.00" fill="#000000">default</text>
<polygon fill="none" stroke="black" points="706.819,1.42109e-14 706.819,-25 730.819,-25 730.819,1.42109e-14 706.819,1.42109e-14"/>
<text text-anchor="start" x="711.819" y="-8.8" font-family="Times,serif" font-size="14.00">11</text>
</g>
</g>
</svg>
