<?xml version="1.0" encoding="UTF-8" standalone="no"?>
<!DOCTYPE svg PUBLIC "-//W3C//DTD SVG 1.1//EN"
 "http://www.w3.org/Graphics/SVG/1.1/DTD/svg11.dtd">
<!-- Generated by graphviz version 2.38.0 (20140413.2041)
 -->
<!-- Title: %3 Pages: 1 -->
<svg width="705pt" height="289pt"
 viewBox="0.00 0.00 705.33 288.69" xmlns="http://www.w3.org/2000/svg" xmlns:xlink="http://www.w3.org/1999/xlink">
<g id="graph0" class="graph" transform="scale(1 1) rotate(0) translate(4 284.686)">
<title>%3</title>
<polygon fill="white" stroke="none" points="-4,4 -4,-284.686 701.327,-284.686 701.327,4 -4,4"/>
<!-- CEN.South -->
<g id="node1" class="node"><title>CEN.South</title>
<polygon fill="#ccffcc" stroke="black" points="328.5,-266.686 244.5,-266.686 244.5,-230.686 328.5,-230.686 328.5,-266.686"/>
<text text-anchor="middle" x="286.5" y="-244.986" font-family="Helvetica,sans-Serif" font-size="14.00">CEN.South</text>
</g>
<!-- NDC.Southeast -->
<g id="node9" class="node"><title>NDC.Southeast</title>
<polygon fill="#ffffcc" stroke="black" points="549.763,-255.23 549.763,-270.142 504.5,-280.686 440.489,-280.686 395.226,-270.142 395.226,-255.23 440.489,-244.686 504.5,-244.686 549.763,-255.23"/>
<text text-anchor="middle" x="472.495" y="-258.986" font-family="Helvetica,sans-Serif" font-size="14.00">NDC.Southeast</text>
</g>
<!-- CEN.South&#45;&gt;NDC.Southeast -->
<g id="edge13" class="edge"><title>CEN.South&#45;&gt;NDC.Southeast</title>
<path fill="none" stroke="#000000" d="M328.792,-251.828C345.484,-253.098 365.414,-254.614 385.009,-256.105"/>
<polygon fill="#000000" stroke="#000000" points="384.971,-259.612 395.207,-256.881 385.502,-252.632 384.971,-259.612"/>
<text text-anchor="middle" x="366.5" y="-258.486" font-family="Times,serif" font-size="14.00">&gt;</text>
</g>
<!-- CEN.Midwest -->
<g id="node2" class="node"><title>CEN.Midwest</title>
<polygon fill="#ccffcc" stroke="black" points="336,-205.686 237,-205.686 237,-169.686 336,-169.686 336,-205.686"/>
<text text-anchor="middle" x="286.5" y="-183.986" font-family="Helvetica,sans-Serif" font-size="14.00">CEN.Midwest</text>
</g>
<!-- NDC.Midwest -->
<g id="node7" class="node"><title>NDC.Midwest</title>
<polygon fill="#ffffcc" stroke="black" points="542.693,-205.23 542.693,-220.142 501.572,-230.686 443.417,-230.686 402.296,-220.142 402.296,-205.23 443.417,-194.686 501.572,-194.686 542.693,-205.23"/>
<text text-anchor="middle" x="472.495" y="-208.986" font-family="Helvetica,sans-Serif" font-size="14.00">NDC.Midwest</text>
</g>
<!-- CEN.Midwest&#45;&gt;NDC.Midwest -->
<g id="edge10" class="edge"><title>CEN.Midwest&#45;&gt;NDC.Midwest</title>
<path fill="none" stroke="#000000" d="M336.324,-194.32C354.989,-196.856 376.719,-199.808 397.228,-202.595"/>
<polygon fill="#000000" stroke="#000000" points="396.798,-206.069 407.179,-203.947 397.741,-199.132 396.798,-206.069"/>
<text text-anchor="middle" x="366.5" y="-202.486" font-family="Times,serif" font-size="14.00">==</text>
</g>
<!-- CEN.USA -->
<g id="node3" class="node"><title>CEN.USA</title>
<polygon fill="#ccffcc" stroke="black" points="196,-134.686 119,-134.686 119,-98.6858 196,-98.6858 196,-134.686"/>
<text text-anchor="middle" x="157.5" y="-112.986" font-family="Helvetica,sans-Serif" font-size="14.00">CEN.USA</text>
</g>
<!-- CEN.USA&#45;&gt;CEN.South -->
<g id="edge4" class="edge"><title>CEN.USA&#45;&gt;CEN.South</title>
<path fill="none" stroke="#000000" d="M174.989,-143.237C188.819,-164.18 209.965,-193.323 233,-214.686 239.21,-220.445 246.51,-225.851 253.659,-230.585"/>
<polygon fill="#000000" stroke="#000000" points="177.902,-141.297 169.525,-134.81 172.028,-145.105 177.902,-141.297"/>
</g>
<!-- CEN.USA&#45;&gt;CEN.Midwest -->
<g id="edge3" class="edge"><title>CEN.USA&#45;&gt;CEN.Midwest</title>
<path fill="none" stroke="#000000" d="M199.682,-139.709C217.029,-149.406 236.921,-160.527 253.183,-169.619"/>
<polygon fill="#000000" stroke="#000000" points="201.313,-136.611 190.876,-134.786 197.897,-142.721 201.313,-136.611"/>
</g>
<!-- CEN.West -->
<g id="node4" class="node"><title>CEN.West</title>
<polygon fill="#ccffcc" stroke="black" points="326.5,-134.686 246.5,-134.686 246.5,-98.6858 326.5,-98.6858 326.5,-134.686"/>
<text text-anchor="middle" x="286.5" y="-112.986" font-family="Helvetica,sans-Serif" font-size="14.00">CEN.West</text>
</g>
<!-- CEN.USA&#45;&gt;CEN.West -->
<g id="edge1" class="edge"><title>CEN.USA&#45;&gt;CEN.West</title>
<path fill="none" stroke="#000000" d="M206.549,-116.686C219.688,-116.686 233.766,-116.686 246.343,-116.686"/>
<polygon fill="#000000" stroke="#000000" points="206.26,-113.186 196.26,-116.686 206.26,-120.186 206.26,-113.186"/>
</g>
<!-- CEN.Northeast -->
<g id="node5" class="node"><title>CEN.Northeast</title>
<polygon fill="#ccffcc" stroke="black" points="340,-63.6858 233,-63.6858 233,-27.6858 340,-27.6858 340,-63.6858"/>
<text text-anchor="middle" x="286.5" y="-41.9858" font-family="Helvetica,sans-Serif" font-size="14.00">CEN.Northeast</text>
</g>
<!-- CEN.USA&#45;&gt;CEN.Northeast -->
<g id="edge2" class="edge"><title>CEN.USA&#45;&gt;CEN.Northeast</title>
<path fill="none" stroke="#000000" d="M199.682,-93.6626C217.029,-83.965 236.921,-72.8443 253.183,-63.7527"/>
<polygon fill="#000000" stroke="#000000" points="197.897,-90.6509 190.876,-98.5857 201.313,-96.761 197.897,-90.6509"/>
</g>
<!-- NDC.USA -->
<g id="node10" class="node"><title>NDC.USA</title>
<polygon fill="#ffffcc" stroke="black" points="697.497,-132.23 697.497,-147.142 665.666,-157.686 620.651,-157.686 588.82,-147.142 588.82,-132.23 620.651,-121.686 665.666,-121.686 697.497,-132.23"/>
<text text-anchor="middle" x="643.158" y="-135.986" font-family="Helvetica,sans-Serif" font-size="14.00">NDC.USA</text>
</g>
<!-- CEN.USA&#45;&gt;NDC.USA -->
<g id="edge16" class="edge"><title>CEN.USA&#45;&gt;NDC.USA</title>
<path fill="none" stroke="#000000" d="M166.491,-98.4535C177.68,-75.3873 200.371,-36.5245 233,-18.6858 288.513,11.6636 311.955,-3.38051 375,-8.68575 454.503,-15.376 482.163,-0.0891676 551.989,-38.6858 583.73,-56.2304 609.964,-89.314 625.799,-112.833"/>
<polygon fill="#000000" stroke="#000000" points="622.949,-114.87 631.349,-121.327 628.809,-111.041 622.949,-114.87"/>
<text text-anchor="middle" x="366.5" y="-12.4858" font-family="Times,serif" font-size="14.00">==</text>
</g>
<!-- NDC.Northeast -->
<g id="node6" class="node"><title>NDC.Northeast</title>
<polygon fill="#ffffcc" stroke="black" points="548.449,-58.2299 548.449,-73.1416 503.956,-83.6858 441.033,-83.6858 396.54,-73.1416 396.54,-58.2299 441.033,-47.6858 503.956,-47.6858 548.449,-58.2299"/>
<text text-anchor="middle" x="472.495" y="-61.9858" font-family="Helvetica,sans-Serif" font-size="14.00">NDC.Northeast</text>
</g>
<!-- CEN.West&#45;&gt;NDC.Northeast -->
<g id="edge14" class="edge"><title>CEN.West&#45;&gt;NDC.Northeast</title>
<path fill="none" stroke="#000000" d="M326.521,-105.87C351.527,-98.9387 384.454,-89.8118 412.608,-82.0081"/>
<polygon fill="#000000" stroke="#000000" points="413.644,-85.3529 422.346,-79.3088 411.775,-78.6072 413.644,-85.3529"/>
<text text-anchor="middle" x="366.5" y="-100.486" font-family="Times,serif" font-size="14.00">!</text>
</g>
<!-- NDC.Southwest -->
<g id="node8" class="node"><title>NDC.Southwest</title>
<polygon fill="#ffffcc" stroke="black" points="551.984,-111.23 551.984,-126.142 505.42,-136.686 439.569,-136.686 393.005,-126.142 393.005,-111.23 439.569,-100.686 505.42,-100.686 551.984,-111.23"/>
<text text-anchor="middle" x="472.495" y="-114.986" font-family="Helvetica,sans-Serif" font-size="14.00">NDC.Southwest</text>
</g>
<!-- CEN.West&#45;&gt;NDC.Southwest -->
<g id="edge12" class="edge"><title>CEN.West&#45;&gt;NDC.Southwest</title>
<path fill="none" stroke="#000000" d="M326.521,-117.11C342.959,-117.289 362.822,-117.504 382.5,-117.718"/>
<polygon fill="#000000" stroke="#000000" points="382.718,-121.221 392.755,-117.83 382.794,-114.221 382.718,-121.221"/>
<text text-anchor="middle" x="366.5" y="-120.486" font-family="Times,serif" font-size="14.00">&gt;&lt;</text>
</g>
<!-- NDC.West -->
<g id="node11" class="node"><title>NDC.West</title>
<polygon fill="#ffffcc" stroke="black" points="529.46,-157.23 529.46,-172.142 496.091,-182.686 448.899,-182.686 415.529,-172.142 415.529,-157.23 448.899,-146.686 496.091,-146.686 529.46,-157.23"/>
<text text-anchor="middle" x="472.495" y="-160.986" font-family="Helvetica,sans-Serif" font-size="14.00">NDC.West</text>
</g>
<!-- CEN.West&#45;&gt;NDC.West -->
<g id="edge15" class="edge"><title>CEN.West&#45;&gt;NDC.West</title>
<path fill="none" stroke="#000000" d="M326.631,-127.329C336.835,-130.078 347.823,-133.014 358,-135.686 377.258,-140.741 398.386,-146.171 417.137,-150.95"/>
<polygon fill="#000000" stroke="#000000" points="416.437,-154.384 426.991,-153.458 418.163,-147.6 416.437,-154.384"/>
<text text-anchor="middle" x="366.5" y="-143.486" font-family="Times,serif" font-size="14.00">&gt;</text>
</g>
<!-- CEN.Northeast&#45;&gt;NDC.Northeast -->
<g id="edge11" class="edge"><title>CEN.Northeast&#45;&gt;NDC.Northeast</title>
<path fill="none" stroke="#000000" d="M340.219,-28.9648C351.678,-27.1419 363.74,-26.601 375,-28.6858 392.386,-31.9047 410.685,-38.1282 426.619,-44.5661"/>
<polygon fill="#000000" stroke="#000000" points="425.629,-47.9458 436.205,-48.5774 428.331,-41.4884 425.629,-47.9458"/>
<text text-anchor="middle" x="366.5" y="-32.4858" font-family="Times,serif" font-size="14.00">&lt;</text>
</g>
<!-- NDC.Northeast&#45;&gt;NDC.USA -->
<g id="edge9" class="edge"><title>NDC.Northeast&#45;&gt;NDC.USA</title>
<path fill="none" stroke="#000000" d="M520.467,-79.8031C530.967,-83.3558 541.96,-87.3917 551.989,-91.6858 570.115,-99.4458 589.504,-109.519 605.64,-118.432"/>
<polygon fill="#000000" stroke="#000000" points="604.295,-121.691 614.731,-123.52 607.714,-115.582 604.295,-121.691"/>
</g>
<!-- NDC.Midwest&#45;&gt;NDC.USA -->
<g id="edge8" class="edge"><title>NDC.Midwest&#45;&gt;NDC.USA</title>
<path fill="none" stroke="#000000" d="M524.357,-200.37C533.684,-197.568 543.234,-194.326 551.989,-190.686 571.186,-182.705 591.431,-171.533 607.863,-161.679"/>
<polygon fill="#000000" stroke="#000000" points="609.854,-164.565 616.569,-156.369 606.209,-158.588 609.854,-164.565"/>
</g>
<!-- NDC.Southwest&#45;&gt;NDC.USA -->
<g id="edge6" class="edge"><title>NDC.Southwest&#45;&gt;NDC.USA</title>
<path fill="none" stroke="#000000" d="M545.512,-127.653C556.504,-129.021 567.781,-130.425 578.575,-131.769"/>
<polygon fill="#000000" stroke="#000000" points="578.395,-135.274 588.75,-133.036 579.259,-128.327 578.395,-135.274"/>
</g>
<!-- NDC.Southeast&#45;&gt;NDC.USA -->
<g id="edge7" class="edge"><title>NDC.Southeast&#45;&gt;NDC.USA</title>
<path fill="none" stroke="#000000" d="M529.624,-250.406C537.443,-247.522 545.136,-243.992 551.989,-239.686 582.044,-220.799 608.168,-189.136 624.451,-166.497"/>
<polygon fill="#000000" stroke="#000000" points="627.526,-168.207 630.401,-158.01 621.795,-164.189 627.526,-168.207"/>
</g>
<!-- NDC.West&#45;&gt;NDC.USA -->
<g id="edge5" class="edge"><title>NDC.West&#45;&gt;NDC.USA</title>
<path fill="none" stroke="#000000" d="M527.789,-156.638C544.217,-154.203 562.395,-151.509 579.332,-148.998"/>
<polygon fill="#000000" stroke="#000000" points="580.313,-152.391 589.691,-147.463 579.286,-145.467 580.313,-152.391"/>
</g>
<!-- Legend -->
<g id="node12" class="node"><title>Legend</title>
<polygon fill="white" stroke="black" points="101,-204.186 0,-204.186 0,-29.1858 101,-29.1858 101,-204.186"/>
<polygon fill="none" stroke="black" points="0.5,-178.686 0.5,-203.686 101.5,-203.686 101.5,-178.686 0.5,-178.686"/>
<text text-anchor="start" x="28" y="-187.486" font-family="Arial Black" font-size="14.00"> Nodes</text>
<polygon fill="#ccffcc" stroke="none" points="0.5,-153.686 0.5,-178.686 83.5,-178.686 83.5,-153.686 0.5,-153.686"/>
<polygon fill="none" stroke="black" points="0.5,-153.686 0.5,-178.686 83.5,-178.686 83.5,-153.686 0.5,-153.686"/>
<text text-anchor="start" x="27.5" y="-162.486" font-family="Helvetica,sans-Serif" font-size="14.00">CEN</text>
<polygon fill="none" stroke="black" points="83.5,-153.686 83.5,-178.686 101.5,-178.686 101.5,-153.686 83.5,-153.686"/>
<text text-anchor="start" x="88.5" y="-162.486" font-family="Helvetica,sans-Serif" font-size="14.00">5</text>
<polygon fill="#ffffcc" stroke="none" points="0.5,-128.686 0.5,-153.686 83.5,-153.686 83.5,-128.686 0.5,-128.686"/>
<polygon fill="none" stroke="black" points="0.5,-128.686 0.5,-153.686 83.5,-153.686 83.5,-128.686 0.5,-128.686"/>
<text text-anchor="start" x="27" y="-137.486" font-family="Helvetica,sans-Serif" font-size="14.00">NDC</text>
<polygon fill="none" stroke="black" points="83.5,-128.686 83.5,-153.686 101.5,-153.686 101.5,-128.686 83.5,-128.686"/>
<text text-anchor="start" x="88.5" y="-137.486" font-family="Helvetica,sans-Serif" font-size="14.00">6</text>
<polygon fill="none" stroke="black" points="0.5,-103.686 0.5,-128.686 101.5,-128.686 101.5,-103.686 0.5,-103.686"/>
<text text-anchor="start" x="26.5" y="-112.486" font-family="Arial Black" font-size="14.00"> Edges </text>
<polygon fill="none" stroke="black" points="0.5,-78.6858 0.5,-103.686 83.5,-103.686 83.5,-78.6858 0.5,-78.6858"/>
<text text-anchor="start" x="8.5" y="-87.4858" font-family="Helvetica,sans-Serif" font-size="14.00" fill="#000000">is_a (CEN)</text>
<polygon fill="none" stroke="black" points="83.5,-78.6858 83.5,-103.686 101.5,-103.686 101.5,-78.6858 83.5,-78.6858"/>
<text text-anchor="start" x="88.5" y="-87.4858" font-family="Helvetica,sans-Serif" font-size="14.00">4</text>
<polygon fill="none" stroke="black" points="0.5,-53.6858 0.5,-78.6858 83.5,-78.6858 83.5,-53.6858 0.5,-53.6858"/>
<text text-anchor="start" x="8.5" y="-62.4858" font-family="Helvetica,sans-Serif" font-size="14.00" fill="#000000">is_a (NDC)</text>
<polygon fill="none" stroke="black" points="83.5,-53.6858 83.5,-78.6858 101.5,-78.6858 101.5,-53.6858 83.5,-53.6858"/>
<text text-anchor="start" x="88.5" y="-62.4858" font-family="Helvetica,sans-Serif" font-size="14.00">5</text>
<polygon fill="none" stroke="black" points="0.5,-28.6858 0.5,-53.6858 83.5,-53.6858 83.5,-28.6858 0.5,-28.6858"/>
<text text-anchor="start" x="5.5" y="-37.4858" font-family="Helvetica,sans-Serif" font-size="14.00" fill="#aa00ff">articulations</text>
<polygon fill="none" stroke="black" points="83.5,-28.6858 83.5,-53.6858 101.5,-53.6858 101.5,-28.6858 83.5,-28.6858"/>
<text text-anchor="start" x="88.5" y="-37.4858" font-family="Helvetica,sans-Serif" font-size="14.00">7</text>
</g>
</g>
</svg>
